<?xml version="1.0" standalone="no"?>
<!DOCTYPE svg PUBLIC "-//W3C//DTD SVG 20010904//EN"
 "http://www.w3.org/TR/2001/REC-SVG-20010904/DTD/svg10.dtd">
<svg version="1.0" xmlns="http://www.w3.org/2000/svg"
 width="700.000000pt" height="700.000000pt" viewBox="0 0 700.000000 700.000000"
 preserveAspectRatio="xMidYMid meet">
<metadata>
Created by potrace 1.14, written by Peter Selinger 2001-2017
</metadata>
<g transform="translate(0.000000,700.000000) scale(0.100000,-0.100000)"
fill="#000000" stroke="none">
<path d="M4265 5673 c-300 -61 -518 -350 -518 -688 0 -376 236 -695 573 -774
368 -86 714 163 785 564 7 39 7 212 0 250 -30 164 -104 317 -204 426 -82 89
-152 139 -259 184 -121 51 -248 64 -377 38z"/>
<path d="M2338 5145 c-2 -2 -21 -6 -43 -9 -249 -39 -468 -273 -510 -548 -38
-242 72 -487 269 -599 105 -58 271 -77 386 -43 378 111 573 556 399 911 -65
135 -215 254 -351 278 -31 6 -147 13 -150 10z"/>
<path d="M5120 4158 c-217 -22 -466 -113 -730 -268 -56 -32 -391 -241 -535
-333 -143 -90 -295 -182 -535 -319 -314 -180 -298 -173 -318 -155 -10 7 -46
31 -82 52 -99 58 -272 173 -520 345 -518 359 -701 455 -965 506 -58 11 -203 6
-266 -10 -159 -40 -317 -152 -403 -285 -59 -92 -81 -149 -102 -261 -7 -41 -7
-285 1 -356 11 -98 17 -147 21 -168 2 -11 6 -38 9 -61 3 -22 8 -51 10 -65 3
-14 7 -36 10 -49 17 -89 67 -261 113 -387 58 -159 194 -406 280 -509 223 -269
449 -418 736 -485 214 -51 424 -47 641 11 60 16 117 31 125 34 43 11 297 109
348 133 235 115 477 239 587 302 164 94 217 113 301 112 103 -1 200 -32 479
-150 480 -203 600 -251 782 -311 87 -29 227 -67 283 -78 174 -32 344 -41 445
-22 123 23 234 74 314 145 128 113 222 318 260 569 21 140 23 162 26 310 7
434 -85 768 -320 1164 -48 81 -174 231 -264 315 -160 150 -371 254 -550 272
-91 9 -107 10 -181 2z"/>
</g>
</svg>
