<svg xmlns="http://www.w3.org/2000/svg" width="123" height="32" viewBox="0 0 123 32" fill="none">
    <path d="M54.8619 9.82246L54.2481 9.6199C53.9772 9.52268 53.8728 9.57669 53.7482 9.84676C53.6088 10.1807 53.3631 10.4598 53.0491 10.641C52.735 10.8223 52.3699 10.8957 52.0099 10.8501C50.8393 10.8501 50.1924 10.2998 50.1924 9.3073V6.92324C50.1924 5.93074 50.84 5.39127 52.0099 5.39127C52.3689 5.34284 52.7338 5.41388 53.0481 5.59334C53.3625 5.77281 53.6085 6.05066 53.7482 6.38378C53.8505 6.64237 53.9643 6.69639 54.2366 6.60997L54.8612 6.40741C55.1112 6.32099 55.1905 6.15963 55.0997 5.93479C54.6566 4.73703 53.6229 4.13342 52.0092 4.13342C49.9302 4.13342 48.7576 5.20155 48.7576 6.9381V9.30122C48.7576 11.0567 49.9275 12.1167 52.0092 12.1167C53.6351 12.1167 54.6688 11.5127 55.1105 10.3045C55.1339 10.2573 55.1458 10.2052 55.1453 10.1525C55.1448 10.0999 55.132 10.048 55.1078 10.0012C55.0837 9.95433 55.0488 9.91377 55.0061 9.88274C54.9634 9.8517 54.914 9.83106 54.8619 9.82246Z" fill="white"/>
    <path d="M59.5179 6.19812C58.3588 6.19812 57.575 6.57555 57.1659 7.32027C57.0405 7.53632 57.1089 7.69769 57.3589 7.80571L57.8135 7.98868C58.075 8.07511 58.1319 8.05621 58.3019 7.82665C58.4405 7.64672 58.6226 7.50481 58.8313 7.41423C59.04 7.32366 59.2683 7.28738 59.4949 7.30879C60.3132 7.30879 60.6309 7.6754 60.6309 8.37691V8.6794C59.9833 8.64699 59.6195 8.62538 59.5402 8.62538C57.6881 8.62538 56.9613 9.07842 56.9613 10.3619C56.9408 10.6084 56.9793 10.8561 57.0735 11.0848C57.1677 11.3136 57.315 11.5168 57.5032 11.6779C58.1037 12.0271 58.7996 12.1782 59.4915 12.1093C60.1846 12.1401 60.8776 12.0452 61.5366 11.8291C61.855 11.6995 61.9431 11.5914 61.9431 11.214V8.42013C61.9526 6.94217 61.1437 6.19812 59.5179 6.19812ZM60.6316 10.8366C60.6316 10.9122 60.5862 10.9554 60.5069 10.9878C60.1318 11.0522 59.7514 11.0811 59.3709 11.0742C58.5417 11.0742 58.3033 10.8366 58.3033 10.3518C58.3033 9.87918 58.5742 9.65029 59.3939 9.65029C59.4278 9.65029 59.837 9.6719 60.6323 9.70431L60.6316 10.8366Z" fill="white"/>
    <path d="M67.2013 6.19812H66.8375C66.1206 6.19798 65.4078 6.30704 64.7239 6.52153C64.3601 6.66197 64.2809 6.7916 64.2809 7.13662V11.6137C64.2809 11.8615 64.3717 11.9513 64.6331 11.9513H65.2577C65.5192 11.9513 65.5964 11.8649 65.5964 11.6137V7.60046C65.5944 7.58432 65.5959 7.56795 65.6007 7.5524C65.6055 7.53685 65.6135 7.52249 65.6242 7.51025C65.635 7.49801 65.6482 7.48817 65.663 7.48137C65.6778 7.47458 65.6939 7.47099 65.7103 7.47082C66.0621 7.37762 66.4254 7.33398 66.7894 7.34119H67.1959C67.4573 7.34119 67.5481 7.25477 67.5481 7.0036V6.53098C67.5542 6.27374 67.4628 6.19812 67.2013 6.19812Z" fill="white"/>
    <path d="M72.6214 6.35949H71.3262V5.38859C71.3262 5.1408 71.2354 5.06519 70.9739 5.06519H70.3601C70.0987 5.06519 70.0079 5.1408 70.0079 5.38859V6.35949H69.2241C68.9626 6.35949 68.8854 6.43512 68.8854 6.68291V7.17916C68.8854 7.42695 68.9646 7.51675 69.2241 7.51675H70.0065V9.72795C69.9663 10.068 69.9982 10.4126 70.0999 10.7397C70.2017 11.0667 70.3711 11.3688 70.5973 11.6266C71.1855 12.0277 71.9025 12.1962 72.6085 12.0992C72.8795 12.0884 72.9723 12.0128 72.9723 11.7542V11.2579C72.9723 10.9986 72.8815 10.9203 72.6085 10.9203C72.2539 10.9618 71.8959 10.8777 71.5971 10.6827C71.4879 10.5414 71.4077 10.3801 71.3612 10.2079C71.3147 10.0358 71.3028 9.85612 71.3262 9.67934V7.51135H72.6214C72.8829 7.51135 72.9737 7.42493 72.9737 7.17376V6.67751C72.9737 6.43512 72.8829 6.35949 72.6214 6.35949Z" fill="white"/>
    <path d="M75.655 5.55061H76.0303C76.0579 5.55442 76.086 5.55181 76.1124 5.54298C76.1388 5.53415 76.1628 5.51934 76.1825 5.49971C76.2022 5.48008 76.217 5.45617 76.2259 5.42986C76.2348 5.40355 76.2374 5.37555 76.2336 5.34806C76.2336 5.07799 76.3243 4.93822 76.5045 4.93822C76.7447 4.97585 76.9692 5.08049 77.1522 5.24003C77.3849 5.42783 77.6714 5.53727 77.9705 5.55263C78.6405 5.55263 78.9358 5.20762 78.9358 4.34474C78.9358 4.2043 78.8681 4.14219 78.7197 4.14219H78.356C78.2083 4.14219 78.1399 4.20971 78.1399 4.34474C78.1399 4.61481 78.0491 4.75458 77.8784 4.75458C77.6422 4.70852 77.4227 4.60061 77.2423 4.44197C76.9938 4.25245 76.6913 4.14674 76.3785 4.14017C75.7539 4.14017 75.4355 4.48518 75.4355 5.34806C75.4416 5.48579 75.5094 5.55061 75.655 5.55061Z" fill="white"/>
    <path d="M77.2456 6.19812C76.0865 6.19812 75.3027 6.57555 74.8935 7.32027C74.7689 7.53632 74.8366 7.69769 75.0866 7.80571L75.5412 7.98868C75.8027 8.07511 75.8589 8.05621 76.0296 7.82665C76.1682 7.64672 76.3503 7.50481 76.559 7.41423C76.7677 7.32366 76.996 7.28738 77.2226 7.30879C78.0402 7.30879 78.3586 7.6754 78.3586 8.37691V8.6794C77.711 8.64699 77.3479 8.62538 77.2679 8.62538C75.4158 8.62538 74.689 9.07842 74.689 10.3619C74.6689 10.6086 74.7079 10.8566 74.8027 11.0853C74.8975 11.3141 75.0454 11.5171 75.2343 11.6779C75.8348 12.0272 76.5307 12.1782 77.2226 12.1093C77.9157 12.1402 78.6087 12.0452 79.2677 11.8291C79.5861 11.6995 79.6742 11.5914 79.6742 11.214V8.42013C79.6769 6.94217 78.8714 6.19812 77.2456 6.19812ZM78.3586 10.8366C78.3586 10.9122 78.3132 10.9554 78.234 10.9878C77.8588 11.0522 77.4785 11.0812 77.0979 11.0742C76.2687 11.0742 76.0303 10.8366 76.0303 10.3518C76.0303 9.87918 76.3012 9.65029 77.1209 9.65029C77.1555 9.65029 77.564 9.6719 78.3593 9.70431L78.3586 10.8366Z" fill="white"/>
    <path d="M84.4495 6.19812C82.7796 6.19812 81.8359 7.00833 81.8359 8.35868V9.95548C81.8359 11.3058 82.7789 12.116 84.4495 12.116C86.1308 12.116 87.0738 11.3058 87.0738 9.95548V8.35868C87.0738 7.00698 86.1308 6.19812 84.4495 6.19812ZM85.7562 9.9521C85.7562 10.5996 85.282 10.977 84.4495 10.977C83.6169 10.977 83.1542 10.5996 83.1542 9.9521V8.3553C83.1542 7.69701 83.6203 7.33039 84.4495 7.33039C85.2786 7.33039 85.7562 7.69701 85.7562 8.3553V9.9521Z" fill="white"/>
    <path d="M97.4697 3.96463H96.8445C96.5837 3.96463 96.5058 4.05105 96.5058 4.30222V6.34126C96.0589 6.25627 95.6057 6.20929 95.1509 6.20081C93.5718 6.20081 92.7765 6.98807 92.7765 8.45523V9.93319C92.7765 11.3895 93.5948 12.112 95.2423 12.112C95.965 12.1181 96.6834 12.0015 97.3668 11.767C97.7305 11.6265 97.8213 11.5192 97.8213 11.1735V4.29884C97.824 4.05172 97.7312 3.96463 97.4697 3.96463ZM96.5037 10.7286C96.5031 10.7554 96.494 10.7813 96.4777 10.8027C96.4614 10.824 96.4387 10.8397 96.4129 10.8474C96.0708 10.93 95.7196 10.9699 95.3676 10.9662C94.5154 10.9662 94.0948 10.6104 94.0948 9.88593V8.48358C94.0948 7.71793 94.527 7.33983 95.4015 7.33983C95.7728 7.34892 96.1421 7.39598 96.5037 7.48028V10.7286Z" fill="white"/>
    <path d="M104.798 9.55103C105.137 9.55103 105.31 9.39979 105.31 9.08718V8.42889C105.31 7.12377 104.412 6.19608 102.685 6.19608C100.97 6.19608 100.049 7.01574 100.049 8.52611V9.79882C100.049 11.212 100.89 12.1073 102.663 12.1073C103.856 12.1073 104.674 11.762 105.117 11.0715C105.288 10.8237 105.243 10.6509 104.982 10.5314L104.584 10.3288C104.313 10.1884 104.186 10.21 104.005 10.4585C103.848 10.6589 103.643 10.8164 103.408 10.9164C103.174 11.0164 102.918 11.0556 102.664 11.0303C101.835 11.0303 101.369 10.6529 101.369 9.95006V9.55103H104.798ZM101.367 8.35327C101.367 7.65244 101.832 7.25273 102.685 7.25273C103.548 7.25273 103.991 7.65176 103.991 8.35327V8.59092H101.367V8.35327Z" fill="white"/>
    <path d="M84.3606 15.5965C82.5906 15.5937 80.831 15.8648 79.1444 16.4C79.1444 18.1852 79.1444 25.7735 79.1444 26.8787C79.1444 29.0332 80.3922 30.6597 85.0191 30.6597C86.011 30.6631 86.9937 30.4703 87.9103 30.0925C88.827 29.7148 89.6593 29.1596 90.3592 28.4591C91.0591 27.7585 91.6127 26.9266 91.9878 26.0115C92.3629 25.0963 92.5522 24.116 92.5447 23.1275C92.5494 19.1426 89.547 15.5965 84.3606 15.5965ZM85.0272 26.691C83.2524 26.7336 83.0315 26.4061 83.0315 25.4399C83.0315 24.6581 83.0437 19.786 83.0437 19.786C83.5452 19.612 84.0709 19.5175 84.6018 19.5058C87.2167 19.5058 88.5986 21.2613 88.5986 23.0613C88.6036 24.0133 88.2311 24.9288 87.5623 25.6086C86.8935 26.2883 85.9824 26.6774 85.0272 26.691Z" fill="white"/>
    <path d="M117.964 21.5638C116.3 21.1458 114.725 20.9784 114.626 20.2695C114.558 19.7847 115.14 19.3674 116.344 19.3674C118.528 19.3178 120.683 19.8724 122.57 20.9696V18.6065C122.57 17.1677 120.996 15.6067 116.973 15.6067C112.471 15.6067 110.626 17.8348 110.626 20.3295C110.626 23.1221 112.704 24.068 115.395 24.6385C118.452 25.2874 119.001 25.5581 119.001 26.0564C119.001 26.741 117.98 26.901 117.283 26.901C115.1 26.9466 112.946 26.3923 111.058 25.2988C111.058 25.2988 111.049 27.0685 111.048 27.6579C111.048 29.0967 112.514 30.6598 116.455 30.6598C120.279 30.6598 122.203 29.0454 122.756 27.2163C124.171 22.5293 119.06 21.8392 117.964 21.5638Z" fill="white"/>
    <path d="M69.7932 15.5885C68.2977 15.5885 66.8357 16.0305 65.5922 16.8586C64.3488 17.6867 63.3796 18.8637 62.8073 20.2408C62.235 21.6179 62.0852 23.1332 62.377 24.5951C62.6687 26.057 63.3889 27.3998 64.4464 28.4538C65.5039 29.5077 66.8512 30.2255 68.318 30.5163C69.7848 30.8071 71.3052 30.6578 72.6869 30.0874C74.0685 29.517 75.2495 28.5511 76.0803 27.3117C76.9112 26.0724 77.3547 24.6153 77.3547 23.1248C77.3547 22.1351 77.1591 21.1551 76.7791 20.2408C76.3991 19.3264 75.8421 18.4956 75.14 17.7958C74.4378 17.096 73.6043 16.5409 72.6869 16.1621C71.7695 15.7834 70.7862 15.5885 69.7932 15.5885ZM69.7932 26.7242C69.0789 26.7242 68.3807 26.5131 67.7868 26.1176C67.1929 25.7221 66.73 25.1599 66.4567 24.5022C66.1834 23.8445 66.1118 23.1208 66.2512 22.4226C66.3905 21.7244 66.7345 21.083 67.2396 20.5797C67.7446 20.0763 68.3881 19.7335 69.0886 19.5946C69.7892 19.4557 70.5153 19.527 71.1752 19.7994C71.8351 20.0718 72.3991 20.5332 72.796 21.1251C73.1928 21.717 73.4046 22.4129 73.4046 23.1248C73.4046 24.0794 73.0241 24.9949 72.3468 25.6699C71.6696 26.3449 70.751 26.7242 69.7932 26.7242Z" fill="white"/>
    <path d="M101.722 15.5885C100.226 15.5885 98.7644 16.0305 97.5209 16.8586C96.2775 17.6867 95.3083 18.8637 94.736 20.2408C94.1637 21.6179 94.0139 23.1332 94.3057 24.5951C94.5975 26.057 95.3176 27.3998 96.3751 28.4538C97.4326 29.5077 98.7799 30.2255 100.247 30.5163C101.714 30.8071 103.234 30.6578 104.616 30.0874C105.997 29.517 107.178 28.5511 108.009 27.3117C108.84 26.0724 109.283 24.6153 109.283 23.1248C109.283 22.1351 109.088 21.1551 108.708 20.2408C108.328 19.3264 107.771 18.4956 107.069 17.7958C106.367 17.096 105.533 16.5409 104.616 16.1621C103.698 15.7834 102.715 15.5885 101.722 15.5885ZM101.722 26.7242C101.008 26.7242 100.309 26.5131 99.7155 26.1176C99.1216 25.7221 98.6587 25.1599 98.3854 24.5022C98.1121 23.8445 98.0405 23.1208 98.1799 22.4226C98.3192 21.7244 98.6632 21.083 99.1683 20.5797C99.6733 20.0763 100.317 19.7335 101.017 19.5946C101.718 19.4557 102.444 19.527 103.104 19.7994C103.764 20.0718 104.328 20.5332 104.725 21.1251C105.121 21.717 105.333 22.4129 105.333 23.1248C105.333 24.0794 104.953 24.9949 104.276 25.6699C103.598 26.3449 102.68 26.7242 101.722 26.7242Z" fill="white"/>
    <path d="M62.2581 14.7863C62.2581 14.7863 52.9956 15.9125 49.9092 16.2974C49.553 16.3435 49.2259 16.5173 48.989 16.7864C48.7522 17.0554 48.6217 17.4012 48.6221 17.7591V19.4788H53.4163V28.4985C53.4163 29.9947 54.3708 30.5274 55.5969 30.5274H57.3813V19.4788H60.047C60.6341 19.4788 61.1972 19.2464 61.6124 18.8326C62.0276 18.4188 62.2608 17.8575 62.2608 17.2724L62.2581 14.7863Z" fill="white"/>
    <path fill-rule="evenodd" clip-rule="evenodd" d="M13.865 4.15975C15.9962 4.87544 17.0523 7.36549 16.2238 9.72253C15.3953 12.0796 12.9958 13.4103 10.8646 12.6933C8.73344 11.9763 7.67732 9.48756 8.50582 7.13119C9.33432 4.77483 11.7318 3.44474 13.865 4.15975Z" fill="white"/>
    <path fill-rule="evenodd" clip-rule="evenodd" d="M0 17.402C0.000231848 19.001 0.185488 20.5945 0.552104 22.1512C1.79045 27.371 5.15458 32 11.0523 32C14.3494 32 19.0297 29.4343 21.3405 28.142C22.6601 27.3993 23.07 26.8693 26.0527 28.1076C32.7301 30.8792 42.286 36.0781 42.431 23.6724C42.5034 17.4796 38.2749 11.1519 33.4719 11.1519C29.4304 11.1519 26.0371 14.1706 21.2321 16.9469C16.2191 19.8448 11.433 22.7001 7.49172 22.7001C1.95575 22.7001 0 19.3073 0 17.402Z" fill="#A6FF00"/>
    <path d="M7.49179 22.7008C10.4149 22.7008 13.8027 21.1297 17.4033 19.1359C12.4533 16.3521 8.69626 12.3841 4.77664 12.3841C4.13209 12.4001 3.49705 12.5427 2.9079 12.8038C2.31875 13.0648 1.78708 13.4392 1.34335 13.9054C0.89962 14.3716 0.552558 14.9205 0.322052 15.5206C0.0915456 16.1208 -0.0178707 16.7603 6.57747e-05 17.4027C6.57747e-05 19.3053 1.95581 22.7008 7.49179 22.7008Z" fill="white"/>
    <path fill-rule="evenodd" clip-rule="evenodd" d="M27.4198 5.02857e-06C30.1919 -0.00404603 32.5581 2.4401 32.7038 5.46016C32.8494 8.48023 30.723 10.9291 27.9509 10.9352C25.1789 10.9412 22.8126 8.49507 22.667 5.47501C22.5213 2.45494 24.6484 0.00405609 27.4198 5.02857e-06Z" fill="#A6FF00"/>
    <path style="mix-blend-mode:multiply" d="M26.0527 28.1076C31.4654 30.3539 38.7688 34.1943 41.4182 28.9624C42.0407 27.7126 41.8518 23.5346 35.6404 23.5346C29.3897 23.5346 23.2691 27.0071 21.3405 28.142C22.6601 27.4027 23.0699 26.8693 26.0527 28.1076Z" fill="url(#paint0_linear_11605_22438)"/>
    <defs>
        <linearGradient id="paint0_linear_11605_22438" x1="21.6858" y1="30.0387" x2="32.1962" y2="18.2583" gradientUnits="userSpaceOnUse">
            <stop stop-color="#00A988" stop-opacity="0.698"/>
            <stop offset="1" stop-color="#00A988" stop-opacity="0.051"/>
        </linearGradient>
    </defs>
</svg>